<svg xmlns="http://www.w3.org/2000/svg" xmlns:xlink="http://www.w3.org/1999/xlink" version="1.1" x="0px" y="0px" viewBox="0 0 100 100" enable-background="new 0 0 100 100" xml:space="preserve"><path fill="none" d="M38.2,64.502l-5.162-15.886L20.4,45.436l-9.482,7.922c0.019,0.224,0.012,0.448,0.034,0.671  c0.8,7.805,3.92,15.136,9.019,21.195c0.165,0.196,0.346,0.376,0.514,0.569l10.428-0.403L38.2,64.502z"/><path fill="none" d="M58.821,66.936H41.178l-7.082,10.583l3.581,9.727c0.239,0.079,0.471,0.175,0.712,0.25  c7.497,2.324,15.709,2.33,23.221-0.002c0.241-0.075,0.473-0.17,0.712-0.249l3.58-9.724L58.821,66.936z"/><path fill="none" d="M51.915,34.443l14.322,10.406l12.429-3.127l4.84-12.052c-0.123-0.201-0.23-0.41-0.357-0.61  c-4.494-7.086-11.263-12.65-19.067-15.664c-0.199-0.077-0.403-0.129-0.603-0.202l-11.565,8.402V34.443z"/><path fill="none" d="M66.962,48.615L61.8,64.502l7.285,10.888l10.429,0.403c0.169-0.193,0.349-0.373,0.514-0.569  c5.101-6.061,8.221-13.389,9.021-21.195c0.023-0.223,0.015-0.446,0.034-0.669L79.6,45.436L66.962,48.615z"/><path fill="none" d="M33.763,44.849l14.322-10.406V21.596L36.52,13.193c-0.2,0.074-0.405,0.126-0.605,0.203  c-7.802,3.014-14.572,8.578-19.064,15.664c-0.127,0.2-0.235,0.409-0.358,0.61l4.84,12.052L33.763,44.849z"/><path d="M87.572,25.267c-5.328-8.069-13.24-14.317-22.277-17.594c-9.816-3.558-20.778-3.555-30.591,0.001  c-9.037,3.275-16.948,9.524-22.277,17.593C7.568,32.627,5,41.178,5,49.994c0,2.014,0.147,4.095,0.436,6.186  c1.015,7.351,3.883,14.41,8.294,20.411c6.316,8.591,15.47,14.683,25.774,17.156c3.451,0.828,6.983,1.247,10.495,1.247  c3.512,0,7.042-0.419,10.495-1.247c10.306-2.472,19.459-8.565,25.776-17.156c4.409-5.999,7.278-13.058,8.294-20.411  C94.854,54.082,95,52,95,49.994C95,41.179,92.432,32.629,87.572,25.267z M63.48,13.193c0.2,0.074,0.404,0.125,0.603,0.202  c7.804,3.014,14.573,8.578,19.067,15.664c0.126,0.2,0.234,0.408,0.357,0.61l-4.84,12.052l-12.429,3.127L51.915,34.443V21.596  L63.48,13.193z M48.085,21.596v12.847L33.763,44.849l-12.429-3.127l-4.84-12.052c0.123-0.202,0.231-0.411,0.358-0.61  c4.492-7.086,11.262-12.65,19.064-15.664c0.2-0.077,0.404-0.129,0.605-0.203L48.085,21.596z M20.4,45.436l12.638,3.179L38.2,64.502  L30.914,75.39l-10.428,0.403c-0.169-0.193-0.349-0.373-0.514-0.569c-5.1-6.059-8.219-13.389-9.019-21.195  c-0.023-0.223-0.015-0.447-0.034-0.671L20.4,45.436z M34.096,77.519l7.082-10.583h17.643l7.082,10.584l-3.58,9.724  c-0.239,0.079-0.471,0.175-0.712,0.249c-7.512,2.332-15.724,2.326-23.221,0.002c-0.241-0.075-0.473-0.17-0.712-0.25L34.096,77.519z   M69.085,75.39L61.8,64.502l5.162-15.887L79.6,45.436l9.483,7.924c-0.019,0.224-0.011,0.446-0.034,0.669  c-0.8,7.805-3.92,15.134-9.021,21.195c-0.165,0.196-0.346,0.376-0.514,0.569L69.085,75.39z"/></svg>