<?xml version="1.0" encoding="UTF-8" standalone="no"?>
<svg
   xmlns:dc="http://purl.org/dc/elements/1.1/"
   xmlns:cc="http://creativecommons.org/ns#"
   xmlns:rdf="http://www.w3.org/1999/02/22-rdf-syntax-ns#"
   xmlns:svg="http://www.w3.org/2000/svg"
   xmlns="http://www.w3.org/2000/svg"
   xmlns:sodipodi="http://sodipodi.sourceforge.net/DTD/sodipodi-0.dtd"
   xmlns:inkscape="http://www.inkscape.org/namespaces/inkscape"
   version="1.1"
   x="0px"
   y="0px"
   viewBox="0 0 100 100"
   enable-background="new 0 0 100 100"
   xml:space="preserve"
   id="svg2"
   inkscape:version="0.91 r13725"
   sodipodi:docname="ball_icon.svg"
   inkscape:export-filename="C:\code\team-balancer\src\assets\ball_icon_32.png"
   inkscape:export-xdpi="28.799999"
   inkscape:export-ydpi="28.799999"><metadata
     id="metadata20"><rdf:RDF><cc:Work
         rdf:about=""><dc:format>image/svg+xml</dc:format><dc:type
           rdf:resource="http://purl.org/dc/dcmitype/StillImage" /><dc:title /></cc:Work></rdf:RDF></metadata><defs
     id="defs18" /><sodipodi:namedview
     pagecolor="#ffffff"
     bordercolor="#666666"
     borderopacity="1"
     objecttolerance="10"
     gridtolerance="10"
     guidetolerance="10"
     inkscape:pageopacity="0"
     inkscape:pageshadow="2"
     inkscape:window-width="1857"
     inkscape:window-height="1057"
     id="namedview16"
     showgrid="false"
     inkscape:zoom="2.36"
     inkscape:cx="-46.280986"
     inkscape:cy="74.495897"
     inkscape:window-x="-8"
     inkscape:window-y="-8"
     inkscape:window-maximized="1"
     inkscape:current-layer="svg2" /><path
     fill="none"
     d="M38.2,64.502l-5.162-15.886L20.4,45.436l-9.482,7.922c0.019,0.224,0.012,0.448,0.034,0.671  c0.8,7.805,3.92,15.136,9.019,21.195c0.165,0.196,0.346,0.376,0.514,0.569l10.428-0.403L38.2,64.502z"
     id="path4" /><path
     fill="none"
     d="M58.821,66.936H41.178l-7.082,10.583l3.581,9.727c0.239,0.079,0.471,0.175,0.712,0.25  c7.497,2.324,15.709,2.33,23.221-0.002c0.241-0.075,0.473-0.17,0.712-0.249l3.58-9.724L58.821,66.936z"
     id="path6" /><path
     style="opacity:1;fill:#dc4daf;fill-opacity:0.25882354;fill-rule:nonzero;stroke:none;stroke-width:5;stroke-miterlimit:4;stroke-dasharray:none;stroke-opacity:1"
     d="m 36.521484,13.193359 c -0.201,0.074 -0.405468,0.126125 -0.605468,0.203125 -7.802,3.014 -14.572453,8.578063 -19.064454,15.664063 -0.127,0.199 -0.234421,0.407375 -0.357421,0.609375 l 4.839843,12.052734 12.429688,3.126953 14.322266,-10.40625 0,-12.847656 -11.564454,-8.402344 z"
     id="path4165" /><path
     style="opacity:1;fill:#dcffff;fill-opacity:0.25882354;fill-rule:nonzero;stroke:none;stroke-width:5;stroke-miterlimit:4;stroke-dasharray:none;stroke-opacity:1"
     d="m 63.480469,13.193359 -11.566407,8.402344 0,12.847656 14.324219,10.404297 12.429688,-3.126953 4.839843,-12.050781 c -0.123,-0.202 -0.231421,-0.411328 -0.357421,-0.611328 -4.494,-7.086 -11.26436,-12.650063 -19.06836,-15.664063 -0.199,-0.077 -0.401562,-0.127172 -0.601562,-0.201172 z"
     id="path4163" /><path
     style="opacity:1;fill:#00ffaf;fill-opacity:0.25882354;fill-rule:nonzero;stroke:none;stroke-width:5;stroke-miterlimit:4;stroke-dasharray:none;stroke-opacity:1"
     d="m 20.400391,45.435547 -9.480469,7.921875 c 0.019,0.224 0.0102,0.448875 0.0332,0.671875 0.8,7.806 3.919531,15.136312 9.019531,21.195312 0.165,0.196 0.344672,0.37536 0.513672,0.56836 L 30.914062,75.390625 38.199219,64.501953 33.037109,48.615234 20.400391,45.435547 Z"
     id="path4161" /><path
     style="opacity:1;fill:#097daf;fill-opacity:0.25882354;fill-rule:nonzero;stroke:none;stroke-width:5;stroke-miterlimit:4;stroke-dasharray:none;stroke-opacity:1"
     d="m 79.599609,45.435547 -12.636718,3.179687 -5.16211,15.886719 7.285157,10.888672 10.427734,0.402344 c 0.168,-0.193 0.348672,-0.37236 0.513672,-0.56836 5.101,-6.061 8.221484,-13.390312 9.021484,-21.195312 0.023,-0.223 0.0142,-0.445922 0.0332,-0.669922 l -9.482422,-7.923828 z"
     id="path4159" /><path
     style="opacity:1;fill:#ffffaf;fill-opacity:0.25882354;fill-rule:nonzero;stroke:none;stroke-width:5;stroke-miterlimit:4;stroke-dasharray:none;stroke-opacity:1"
     d="m 41.177734,66.935547 -7.082031,10.583984 3.582031,9.72461 c 0.239,0.08 0.471891,0.175 0.712891,0.25 7.497,2.324 15.708703,2.330046 23.220703,-0.002 0.241,-0.074 0.471938,-0.169047 0.710938,-0.248047 l 3.580078,-9.72461 -7.082032,-10.583984 -17.642578,0 z"
     id="path4148" /><path
     fill="none"
     d="M51.915,34.443l14.322,10.406l12.429-3.127l4.84-12.052c-0.123-0.201-0.23-0.41-0.357-0.61  c-4.494-7.086-11.263-12.65-19.067-15.664c-0.199-0.077-0.403-0.129-0.603-0.202l-11.565,8.402V34.443z"
     id="path8" /><path
     fill="none"
     d="M66.962,48.615L61.8,64.502l7.285,10.888l10.429,0.403c0.169-0.193,0.349-0.373,0.514-0.569  c5.101-6.061,8.221-13.389,9.021-21.195c0.023-0.223,0.015-0.446,0.034-0.669L79.6,45.436L66.962,48.615z"
     id="path10" /><path
     fill="none"
     d="M33.763,44.849l14.322-10.406V21.596L36.52,13.193c-0.2,0.074-0.405,0.126-0.605,0.203  c-7.802,3.014-14.572,8.578-19.064,15.664c-0.127,0.2-0.235,0.409-0.358,0.61l4.84,12.052L33.763,44.849z"
     id="path12" /><path
     id="path4155"
     d="M 88.987326,24.33532 C 83.458622,15.962363 75.248579,9.4790029 65.871158,6.0785593 55.685392,2.3865305 44.310457,2.3896435 34.127804,6.0795969 24.750383,9.4779652 16.541378,15.962363 11.011636,24.33532 5.9695992,31.972569 3.3048634,40.845683 3.3048634,49.993779 c 0,2.089866 0.1525375,4.249257 0.452424,6.419024 1.0532348,7.62791 4.0292715,14.952821 8.6064326,21.179877 6.553922,8.91462 16.05275,15.236104 26.744899,17.802261 3.580998,0.859191 7.246047,1.293974 10.890343,1.293974 3.644296,0 7.30727,-0.434783 10.890344,-1.293974 C 71.58353,92.829822 81.081321,86.5073 87.63628,77.59268 c 4.575086,-6.224981 7.55216,-13.549891 8.606433,-21.179877 0.300924,-2.177031 0.452424,-4.337459 0.452424,-6.419024 0,-9.147059 -2.664736,-18.019135 -7.707811,-25.658459 z M 63.987788,11.806496 c 0.207534,0.07679 0.419218,0.129709 0.625714,0.209609 8.097975,3.127537 15.121961,8.901131 19.785249,16.254058 0.130746,0.207534 0.242814,0.42337 0.370448,0.632979 L 79.746877,41.409137 66.849681,44.65393 51.987137,33.856977 l 0,-13.330942 12.000651,-8.719539 z m -15.974925,8.719539 0,13.330942 L 33.151357,44.654968 20.25416,41.410175 15.231839,28.90418 c 0.127633,-0.20961 0.239702,-0.426483 0.371486,-0.632979 4.661212,-7.352927 11.686236,-13.126522 19.782135,-16.254058 0.207534,-0.0799 0.419218,-0.133859 0.62779,-0.210647 l 11.999613,8.719539 z m -28.727886,24.738045 13.11407,3.298752 5.356451,16.485459 -7.560462,11.298147 -10.82082,0.418181 C 19.19885,76.564349 19.01207,76.377569 18.840854,76.174185 13.548739,69.886945 10.312247,62.280826 9.4821112,54.180776 9.4582448,53.949376 9.4665461,53.716938 9.4468304,53.4845 l 9.8381466,-8.22042 z m 14.211924,33.291557 7.348777,-10.981658 18.307606,0 7.348777,10.982696 -3.714857,10.0903 c -0.248003,0.08198 -0.488743,0.181592 -0.738821,0.25838 -7.794975,2.419846 -16.316318,2.41362 -24.095728,0.0021 -0.250079,-0.07783 -0.490818,-0.176404 -0.738821,-0.259417 L 33.496901,78.555637 Z m 36.307025,-2.209199 -7.559424,-11.298147 5.356451,-16.485459 13.11407,-3.298752 9.840222,8.222495 c -0.01972,0.232438 -0.01141,0.462801 -0.03528,0.694201 -0.830136,8.099012 -4.067665,15.704093 -9.360818,21.993409 -0.171216,0.203384 -0.359034,0.390164 -0.533362,0.590434 L 69.803926,76.346438 Z"
     inkscape:connector-curvature="0"
     style="fill:#dcffaf;fill-opacity:1" /><path
     d="M87.572,25.267c-5.328-8.069-13.24-14.317-22.277-17.594c-9.816-3.558-20.778-3.555-30.591,0.001  c-9.037,3.275-16.948,9.524-22.277,17.593C7.568,32.627,5,41.178,5,49.994c0,2.014,0.147,4.095,0.436,6.186  c1.015,7.351,3.883,14.41,8.294,20.411c6.316,8.591,15.47,14.683,25.774,17.156c3.451,0.828,6.983,1.247,10.495,1.247  c3.512,0,7.042-0.419,10.495-1.247c10.306-2.472,19.459-8.565,25.776-17.156c4.409-5.999,7.278-13.058,8.294-20.411  C94.854,54.082,95,52,95,49.994C95,41.179,92.432,32.629,87.572,25.267z M63.48,13.193c0.2,0.074,0.404,0.125,0.603,0.202  c7.804,3.014,14.573,8.578,19.067,15.664c0.126,0.2,0.234,0.408,0.357,0.61l-4.84,12.052l-12.429,3.127L51.915,34.443V21.596  L63.48,13.193z M48.085,21.596v12.847L33.763,44.849l-12.429-3.127l-4.84-12.052c0.123-0.202,0.231-0.411,0.358-0.61  c4.492-7.086,11.262-12.65,19.064-15.664c0.2-0.077,0.404-0.129,0.605-0.203L48.085,21.596z M20.4,45.436l12.638,3.179L38.2,64.502  L30.914,75.39l-10.428,0.403c-0.169-0.193-0.349-0.373-0.514-0.569c-5.1-6.059-8.219-13.389-9.019-21.195  c-0.023-0.223-0.015-0.447-0.034-0.671L20.4,45.436z M34.096,77.519l7.082-10.583h17.643l7.082,10.584l-3.58,9.724  c-0.239,0.079-0.471,0.175-0.712,0.249c-7.512,2.332-15.724,2.326-23.221,0.002c-0.241-0.075-0.473-0.17-0.712-0.25L34.096,77.519z   M69.085,75.39L61.8,64.502l5.162-15.887L79.6,45.436l9.483,7.924c-0.019,0.224-0.011,0.446-0.034,0.669  c-0.8,7.805-3.92,15.134-9.021,21.195c-0.165,0.196-0.346,0.376-0.514,0.569L69.085,75.39z"
     id="path14" /></svg>