<?xml version="1.0" standalone="no"?>
<!DOCTYPE svg PUBLIC "-//W3C//DTD SVG 20010904//EN"
 "http://www.w3.org/TR/2001/REC-SVG-20010904/DTD/svg10.dtd">
<svg version="1.0" xmlns="http://www.w3.org/2000/svg"
 width="1280.000000pt" height="1198.000000pt" viewBox="0 0 1280.000000 1198.000000"
 preserveAspectRatio="xMidYMid meet">
<g transform="translate(0.000000,1198.000000) scale(0.100000,-0.100000)"
fill="#000000" stroke="none">
<path d="M6135 11969 c-968 -79 -1859 -621 -2388 -1453 -142 -223 -273 -510
-352 -771 -161 -532 -171 -1138 -29 -1760 87 -381 215 -735 404 -1120 524
-1067 1317 -1812 2149 -2020 312 -78 650 -78 962 0 446 112 879 374 1279 775
684 685 1201 1736 1340 2727 127 904 -94 1749 -640 2443 -105 134 -374 402
-510 510 -624 495 -1415 734 -2215 669z"/>
<path d="M5955 4204 c-869 -43 -1476 -117 -2130 -260 -2373 -521 -3876 -1687
-3822 -2964 23 -541 328 -830 982 -934 205 -33 344 -41 710 -41 459 1 746 18
1685 100 1311 115 1798 146 2577 166 333 9 553 9 885 0 780 -20 1267 -51 2578
-166 939 -82 1226 -99 1685 -100 450 0 644 17 900 79 564 138 818 466 792
1025 -44 949 -918 1821 -2422 2416 -916 362 -2007 587 -3225 665 -161 11
-1055 21 -1195 14z"/>
</g>
</svg>
