<?xml version="1.0" encoding="iso-8859-1"?>
<!-- Generator: Adobe Illustrator 19.0.0, SVG Export Plug-In . SVG Version: 6.00 Build 0)  -->
<svg version="1.1" id="Layer_1" xmlns="http://www.w3.org/2000/svg" xmlns:xlink="http://www.w3.org/1999/xlink" x="0px" y="0px"
	 viewBox="0 0 481.882 481.882" style="enable-background:new 0 0 481.882 481.882;" xml:space="preserve">
<path style="fill:#2F4859;" d="M475.859,78.908l-54.212-51.802c-3.614-3.614-9.035-6.024-14.456-6.024H20.48
	C9.035,21.082,0,30.118,0,40.96v421.647c0,10.842,9.035,19.275,20.48,19.275h440.922c11.445,0,20.48-9.035,20.48-19.275V92.762
	C481.882,87.341,479.473,82.522,475.859,78.908z"/>
<path style="fill:#3A556A;" d="M475.859,57.826L421.647,6.024C418.033,2.409,412.612,0,407.191,0H20.48C9.035,0,0,9.035,0,19.275
	v421.647C0,451.765,9.035,460.8,20.48,460.8h440.922c11.445,0,20.48-9.035,20.48-19.275V71.68
	C481.882,66.259,479.473,61.44,475.859,57.826z"/>
<path style="fill:#E56353;" d="M381.892,262.626H99.991c-4.819,0-9.035,4.216-9.035,9.035v39.153h300.574v-39.153
	C391.529,266.842,387.313,262.626,381.892,262.626z"/>
<rect x="90.353" y="310.814" style="fill:#EBF0F3;" width="300.574" height="149.986"/>
<g>
	<rect x="109.628" y="341.534" style="fill:#E1E6E9;" width="263.228" height="9.638"/>
	<rect x="109.628" y="380.687" style="fill:#E1E6E9;" width="263.228" height="9.638"/>
	<rect x="109.628" y="420.442" style="fill:#E1E6E9;" width="263.228" height="9.638"/>
</g>
<path style="fill:#64798A;" d="M99.388,0v136.734c0,6.626,5.421,12.649,12.649,12.649H378.88c6.626,0,12.649-5.421,12.649-12.649V0
	H99.388z"/>
<path style="fill:#EBF0F3;" d="M213.233,0v136.734c0,6.626,5.421,12.649,12.649,12.649H378.88c6.626,0,12.649-5.421,12.649-12.649V0
	H213.233z M355.991,112.038c0,4.216-3.012,7.228-7.228,7.228h-27.106c-4.216,0-7.228-3.012-7.228-7.228V28.913
	c0-4.216,3.012-7.228,7.228-7.228h27.106c4.216,0,7.228,3.012,7.228,7.228V112.038z"/>
<path style="fill:#2F4859;" d="M52.405,390.325H27.708c-4.216,0-7.228,3.614-7.228,7.228v24.696c0,4.216,3.614,7.228,7.228,7.228
	h24.696c4.216,0,7.228-3.614,7.228-7.228v-24.696C59.633,393.939,56.621,390.325,52.405,390.325z"/>
<g>
</g>
<g>
</g>
<g>
</g>
<g>
</g>
<g>
</g>
<g>
</g>
<g>
</g>
<g>
</g>
<g>
</g>
<g>
</g>
<g>
</g>
<g>
</g>
<g>
</g>
<g>
</g>
<g>
</g>
</svg>
