<svg xmlns="http://www.w3.org/2000/svg">
  <symbol id="store-result">
    <path fill-rule="evenodd" d="M8 5.5a.5.5 0 0 1 .5.5v1.5H10a.5.5 0 0 1 0 1H8.5V10a.5.5 0 0 1-1 0V8.5H6a.5.5 0 0 1 0-1h1.5V6a.5.5 0 0 1 .5-.5z" />
    <path d="M4.406 3.342A5.53 5.53 0 0 1 8 2c2.69 0 4.923 2 5.166 4.579C14.758 6.804 16 8.137 16 9.773 16 11.569 14.502 13 12.687 13H3.781C1.708 13 0 11.366 0 9.318c0-1.763 1.266-3.223 2.942-3.593.143-.863.698-1.723 1.464-2.383zm.653.757c-.757.653-1.153 1.44-1.153 2.056v.448l-.445.049C2.064 6.805 1 7.952 1 9.318 1 10.785 2.23 12 3.781 12h8.906C13.98 12 15 10.988 15 9.773c0-1.216-1.02-2.228-2.313-2.228h-.5v-.5C12.188 4.825 10.328 3 8 3a4.53 4.53 0 0 0-2.941 1.1z" />
  </symbol>
  <symbol id="upload-result">
    <path fill-rule="evenodd" d="M11.36 7.098c-1.137 0-1.708-.657-1.762-1.278h1.004c.058.223.343.45.773.45.824 0 1.164-.829 1.133-1.856h-.059c-.148.39-.57.742-1.261.742-.91 0-1.72-.613-1.72-1.758 0-1.148.848-1.836 1.973-1.836 1.09 0 2.063.637 2.063 2.688 0 1.867-.723 2.848-2.145 2.848zm.062-2.735c.504 0 .933-.336.933-.972 0-.633-.398-1.008-.94-1.008-.52 0-.927.375-.927 1 0 .64.418.98.934.98z" />
    <path d="M12.438 8.668V14H11.39V9.684h-.051l-1.211.859v-.969l1.262-.906h1.046zM4.5 13.5a.5.5 0 0 1-1 0V3.707L2.354 4.854a.5.5 0 1 1-.708-.708l2-1.999.007-.007a.498.498 0 0 1 .7.006l2 2a.5.5 0 1 1-.707.708L4.5 3.707V13.5z" />
  </symbol>

  <symbol id="cloud-arrow">
    <path fill-rule="evenodd" d="M8 0a5.53 5.53 0 0 0-3.594 1.342c-.766.66-1.321 1.52-1.464 2.383C1.266 4.095 0 5.555 0 7.318 0 9.366 1.708 11 3.781 11H7.5V5.707L5.354 7.854a.5.5 0 1 1-.708-.708l3-3a.5.5 0 0 1 .708 0l3 3a.5.5 0 0 1-.708.708L8.5 5.707V11h4.188C14.502 11 16 9.57 16 7.773c0-1.636-1.242-2.969-2.834-3.194C12.923 1.999 10.69 0 8 0zm-.5 14.5V11h1v3.5a.5.5 0 0 1-1 0z" />
  </symbol>

  <symbol id="clear">
    <path d="M11.46.146A.5.5 0 0 0 11.107 0H4.893a.5.5 0 0 0-.353.146L.146 4.54A.5.5 0 0 0 0 4.893v6.214a.5.5 0 0 0 .146.353l4.394 4.394a.5.5 0 0 0 .353.146h6.214a.5.5 0 0 0 .353-.146l4.394-4.394a.5.5 0 0 0 .146-.353V4.893a.5.5 0 0 0-.146-.353L11.46.146zm-6.106 4.5L8 7.293l2.646-2.647a.5.5 0 0 1 .708.708L8.707 8l2.647 2.646a.5.5 0 0 1-.708.708L8 8.707l-2.646 2.647a.5.5 0 0 1-.708-.708L7.293 8 4.646 5.354a.5.5 0 1 1 .708-.708z" />
  </symbol>

  <symbol id="clipboard">
    <path d="M6.5 0A1.5 1.5 0 0 0 5 1.5v1A1.5 1.5 0 0 0 6.5 4h3A1.5 1.5 0 0 0 11 2.5v-1A1.5 1.5 0 0 0 9.5 0h-3Zm3 1a.5.5 0 0 1 .5.5v1a.5.5 0 0 1-.5.5h-3a.5.5 0 0 1-.5-.5v-1a.5.5 0 0 1 .5-.5h3Z" />
    <path d="M4 1.5H3a2 2 0 0 0-2 2V14a2 2 0 0 0 2 2h10a2 2 0 0 0 2-2V3.5a2 2 0 0 0-2-2h-1v1A2.5 2.5 0 0 1 9.5 5h-3A2.5 2.5 0 0 1 4 2.5v-1Zm6.854 7.354-3 3a.5.5 0 0 1-.708 0l-1.5-1.5a.5.5 0 0 1 .708-.708L7.5 10.793l2.646-2.647a.5.5 0 0 1 .708.708Z" />
  </symbol>

  <symbol id="dice">
    <path d="M13 1a2 2 0 0 1 2 2v10a2 2 0 0 1-2 2H3a2 2 0 0 1-2-2V3a2 2 0 0 1 2-2zM3 0a3 3 0 0 0-3 3v10a3 3 0 0 0 3 3h10a3 3 0 0 0 3-3V3a3 3 0 0 0-3-3z"/>
    <path d="M5.5 4a1.5 1.5 0 1 1-3 0 1.5 1.5 0 0 1 3 0m8 8a1.5 1.5 0 1 1-3 0 1.5 1.5 0 0 1 3 0m-4-4a1.5 1.5 0 1 1-3 0 1.5 1.5 0 0 1 3 0"/>
  </symbol>
</svg>