<?xml version="1.0" encoding="iso-8859-1"?>
<!-- Generator: Adobe Illustrator 19.0.0, SVG Export Plug-In . SVG Version: 6.00 Build 0)  -->
<svg version="1.1" id="Capa_1" xmlns="http://www.w3.org/2000/svg" xmlns:xlink="http://www.w3.org/1999/xlink" x="0px" y="0px"
	 viewBox="0 0 512.081 512.081" style="enable-background:new 0 0 512.081 512.081;" xml:space="preserve">
<path style="fill:#03A9F4;" d="M443.966,45.03C409.641,18.044,336.19,1.062,333.075,0.358c-5.744-1.308-11.461,2.288-12.768,8.032
	c-0.176,0.773-0.265,1.564-0.266,2.357c0,14.4-29.547,32-64,32s-64-17.6-64-32c0.002-3.246-1.474-6.316-4.011-8.341
	c-2.508-2.085-5.848-2.875-9.024-2.133c-3.115,0.704-76.544,17.707-110.933,44.672C32.553,72.977,22.441,208.06,21.374,223.356
	c-0.292,4.347,2.09,8.435,6.016,10.325c25.062,11.606,51.856,19.028,79.317,21.973v224.427c0.007,3.944,2.189,7.562,5.675,9.408
	c1.728,0.939,43.605,22.592,143.659,22.592s141.931-21.653,143.659-22.592c3.485-1.846,5.668-5.464,5.675-9.408V255.654
	c27.454-2.947,54.24-10.37,79.296-21.973c3.934-1.884,6.325-5.973,6.037-10.325C489.641,208.06,479.529,72.977,443.966,45.03z"/>
<g>
	<path style="fill:#0288D1;" d="M117.374,256.081c-5.891,0-10.667-4.776-10.667-10.667v-64c0.872-20.389-5.591-40.416-18.219-56.448
		c-4.092-4.237-3.975-10.99,0.262-15.083c4.134-3.992,10.687-3.992,14.82,0c16.815,19.944,25.545,45.466,24.469,71.531v64
		C128.041,251.305,123.265,256.081,117.374,256.081z"/>
	<path style="fill:#0288D1;" d="M394.707,256.081c-5.891,0-10.667-4.776-10.667-10.667v-64
		c-1.087-26.069,7.636-51.599,24.448-71.552c4.093-4.237,10.845-4.355,15.083-0.262c4.237,4.093,4.354,10.845,0.262,15.083
		c-0.086,0.089-0.173,0.176-0.262,0.262c-12.625,16.041-19.081,36.076-18.197,56.469v64
		C405.374,251.305,400.598,256.081,394.707,256.081z"/>
</g>
<path style="fill:#1976D2;" d="M337.491,2.534c-2.437-2.044-5.668-2.875-8.789-2.261C304.7,5.14,280.44,8.637,256.041,10.748
	c-24.4-2.11-48.659-5.607-72.661-10.475c-3.121-0.611-6.351,0.22-8.789,2.261c-2.454,2.022-3.877,5.034-3.883,8.213
	c0,32,44.117,53.333,85.333,53.333s85.333-21.333,85.333-53.333C341.369,7.568,339.945,4.556,337.491,2.534z"/>
<g>
</g>
<g>
</g>
<g>
</g>
<g>
</g>
<g>
</g>
<g>
</g>
<g>
</g>
<g>
</g>
<g>
</g>
<g>
</g>
<g>
</g>
<g>
</g>
<g>
</g>
<g>
</g>
<g>
</g>
</svg>
