<?xml version="1.0" encoding="iso-8859-1"?>
<!-- Generator: Adobe Illustrator 19.0.0, SVG Export Plug-In . SVG Version: 6.00 Build 0)  -->
<svg version="1.1" id="Layer_1" xmlns="http://www.w3.org/2000/svg" xmlns:xlink="http://www.w3.org/1999/xlink" x="0px" y="0px"
	 viewBox="0 0 512 512" style="enable-background:new 0 0 512 512;" xml:space="preserve">
<path style="fill:#FF7140;" d="M467.699,74.159c-0.641-2.524-6.932-24.934-29.867-34.682C417.594,30.875,350.85,5.563,337.673,0.575
	C336.667,0.196,335.6,0,334.521,0H177.478c-1.079,0-2.146,0.196-3.152,0.577c-13.173,4.986-79.909,30.294-100.158,38.9
	c-22.936,9.749-29.236,32.198-29.902,34.819l-20.402,84.057l0,0l79.015,68.936v252.804h306.244V227.29l79.015-68.936L467.699,74.159
	z"/>
<path style="fill:#E03C2F;" d="M57.266,51.371c-8.774,9.395-12.133,19.848-12.841,22.33c-0.067,0.236-0.118,0.432-0.154,0.571
	l-20.408,84.08l79.015,68.936V126.805L57.266,51.371z"/>
<polygon style="fill:#D83A25;" points="80.617,176.945 80.617,187.252 80.617,207.869 102.878,227.29 102.878,187.252 
	102.878,176.945 102.878,126.805 80.617,89.99 "/>
<path style="fill:#E03C2F;" d="M467.7,74.164c-0.002-0.01-0.004-0.019-0.008-0.03c-0.002-0.009-0.006-0.021-0.008-0.03
	c-0.373-1.41-3.561-12.675-12.952-22.732l-45.611,75.433V227.29l79.015-68.936L467.7,74.164z"/>
<path style="fill:#ED4D2E;" d="M256.597,92.511c41.293,0,80.748-39.716,80.748-92.511H175.849
	C175.849,52.796,215.307,92.511,256.597,92.511z"/>
<path style="fill:#D83A25;" d="M291.532,0c0,42.842-25.981,77.067-57.842,88.451c7.402,2.645,15.122,4.059,22.906,4.059
	c41.293,0,80.748-39.716,80.748-92.511C337.345,0,291.532,0,291.532,0z"/>
<path style="fill:#FFFFFF;" d="M277.832,37.059h-43.065c-4.611,0-8.348-3.738-8.348-8.348s3.736-8.348,8.348-8.348h43.065
	c4.611,0,8.348,3.738,8.348,8.348C286.18,33.321,282.443,37.059,277.832,37.059z"/>
<g>
	<path style="fill:#FCF1D4;" d="M248.68,28.711c0-4.61,3.736-8.348,8.348-8.348h-22.261c-4.611,0-8.348,3.738-8.348,8.348
		s3.736,8.348,8.348,8.348h22.261C252.418,37.059,248.68,33.321,248.68,28.711z"/>
	<path style="fill:#FCF1D4;" d="M17.376,185.082c-1.045,4.312,1.243,8.735,5.365,10.372l80.137,31.835v-35.798l-79.015-33.14
		L17.376,185.082z"/>
</g>
<polygon style="fill:#F7DDA4;" points="80.617,187.252 80.617,218.446 102.878,227.29 102.878,191.491 80.617,182.156 "/>
<polygon style="fill:#D83A25;" points="431.383,176.945 431.383,187.252 431.383,207.869 409.122,227.29 409.122,187.252 
	409.122,176.945 409.122,126.805 431.383,89.99 "/>
<path style="fill:#FCF1D4;" d="M494.624,185.082l-2.493-10.276l-3.994-16.453l-79.015,33.139v35.798l80.137-31.835
	C493.38,193.816,495.669,189.393,494.624,185.082z"/>
<polygon style="fill:#F7DDA4;" points="431.383,187.252 431.383,218.446 409.122,227.29 409.122,191.491 431.383,182.156 "/>
<path style="fill:#FCF1D4;" d="M167.786,478.063h-64.908v25.032c0,4.917,3.987,8.904,8.904,8.904h288.435
	c4.917,0,8.904-3.987,8.904-8.904v-25.032H195.611H167.786z"/>
<g>
</g>
<g>
</g>
<g>
</g>
<g>
</g>
<g>
</g>
<g>
</g>
<g>
</g>
<g>
</g>
<g>
</g>
<g>
</g>
<g>
</g>
<g>
</g>
<g>
</g>
<g>
</g>
<g>
</g>
</svg>
