<?xml version="1.0" encoding="iso-8859-1"?>
<!-- Generator: Adobe Illustrator 19.0.0, SVG Export Plug-In . SVG Version: 6.00 Build 0)  -->
<svg version="1.1" id="Capa_1" xmlns="http://www.w3.org/2000/svg" xmlns:xlink="http://www.w3.org/1999/xlink" x="0px" y="0px"
	 viewBox="0 0 512 512" style="enable-background:new 0 0 512 512;" xml:space="preserve">
<path style="fill:#4BC999;" d="M508.395,259.605c0,2.019-0.021,4.028-0.072,6.027c-0.288,12.208-1.442,24.199-3.4,35.912
	c-2.586,15.453-6.573,30.432-11.827,44.803c-3.317,9.076-7.149,17.905-11.445,26.455c-2.225,4.44-4.584,8.808-7.067,13.083
	c-9.004,15.556-19.615,30.05-31.627,43.268c-13.753,15.175-29.34,28.649-46.399,40.115c-0.381,0.258-0.773,0.515-1.164,0.773
	c-9.158,6.078-18.739,11.579-28.68,16.442c-0.958,0.474-1.926,0.937-2.895,1.391c-23.014,10.899-47.934,18.399-74.132,21.891
	C278.664,511.238,267.425,512,256,512c-38.58,0-75.131-8.654-107.829-24.127c-10.971-5.192-21.521-11.157-31.555-17.832
	c-6.511-4.316-12.805-8.921-18.873-13.815c-9.704-7.819-18.821-16.339-27.259-25.497c-0.484-0.525-0.968-1.051-1.432-1.576
	c-6.892-7.572-13.31-15.566-19.234-23.931c-4.409-6.243-8.551-12.692-12.393-19.337c-10.312-17.802-18.502-36.973-24.251-57.175
	c-6.233-21.964-9.57-45.143-9.57-69.105c0-48.213,13.516-93.273,36.973-131.585C84.938,55.557,164.819,7.21,256,7.21
	s171.062,48.347,215.422,120.81c4.183,6.83,8.046,13.877,11.579,21.119c7.86,16.112,14.052,33.192,18.348,51.004
	c1.257,5.192,2.349,10.456,3.276,15.772c0.536,3.07,1.02,6.16,1.432,9.272C507.601,236.436,508.395,247.933,508.395,259.605z"/>
<path style="fill:#FCF8F2;" d="M395.394,470.041c-9.158,6.078-18.739,11.579-28.68,16.442c-0.958,0.474-1.926,0.937-2.895,1.391
	H148.171c-10.971-5.192-21.521-11.157-31.555-17.832H395.394z"/>
<path style="fill:#78CAEF;" d="M471.421,128.02H40.578c16.04-26.198,36.726-49.253,60.904-67.992
	C144.184,26.918,197.784,7.21,256,7.21s111.816,19.707,154.517,52.817C434.696,78.767,455.381,101.822,471.421,128.02z"/>
<path style="fill:#FCF8F2;" d="M506.055,225.187H158.771V128.02h9.272v87.895h336.581
	C505.159,218.985,505.644,222.076,506.055,225.187z"/>
<path style="fill:#FFD15C;" d="M360.44,243.885c0,2.029-0.227,4.007-0.659,5.903c-1.123,4.996-3.657,9.467-7.16,12.96
	c-4.821,4.821-11.497,7.809-18.863,7.809H29.7c-6.892,0-13.176-2.648-17.863-6.995c-3.987-3.698-6.603-8.54-7.685-13.774
	c-0.577-2.864-0.701-5.851-0.35-8.808l5.872-48.182l3.42-28.114c0-5.048,6.336-7.294,9.519-3.358
	c22.788,28.217,64.17,32.523,92.294,9.632l24.9-20.284c5.408-4.399,12.846-5.367,19.203-2.483c0,0,0,0,0,0.01l95.683,43.402
	c22.87,10.384,47.059,17.42,71.804,21.788C342.793,216.265,358.42,223.065,360.44,243.885z"/>
<g>
	<path style="fill:#5C5E70;" d="M161.424,181.13c-1.646,0-3.291-0.63-4.544-1.89c-2.493-2.51-2.48-6.565,0.03-9.058l20.311-20.178
		c2.51-2.493,6.564-2.48,9.058,0.03c2.493,2.51,2.48,6.565-0.03,9.058l-20.311,20.178C164.689,180.51,163.056,181.13,161.424,181.13
		z"/>
	<path style="fill:#5C5E70;" d="M193.989,194.388c-1.646,0-3.291-0.63-4.544-1.89c-2.493-2.51-2.48-6.565,0.03-9.058l20.311-20.178
		c2.51-2.493,6.564-2.48,9.058,0.03c2.493,2.51,2.48,6.565-0.03,9.058l-20.311,20.178
		C197.255,193.768,195.622,194.388,193.989,194.388z"/>
	<path style="fill:#5C5E70;" d="M225.625,208.299c-1.646,0-3.291-0.63-4.544-1.89c-2.493-2.51-2.48-6.565,0.03-9.058l20.311-20.178
		c2.51-2.493,6.565-2.48,9.058,0.03c2.493,2.51,2.48,6.565-0.03,9.058l-20.311,20.178
		C228.891,207.679,227.258,208.299,225.625,208.299z"/>
	<path style="fill:#5C5E70;" d="M258.657,222.023c-1.646,0-3.291-0.63-4.544-1.89c-2.493-2.51-2.48-6.565,0.03-9.058l20.311-20.178
		c2.51-2.493,6.565-2.48,9.058,0.03c2.493,2.51,2.48,6.565-0.03,9.058l-20.311,20.178
		C261.922,221.403,260.289,222.023,258.657,222.023z"/>
</g>
<g>
	<path style="fill:#F9EED7;" d="M311.227,290.834c-3.066,0-5.551-2.485-5.551-5.551v-20.47c0-3.066,2.485-5.551,5.551-5.551
		c3.066,0,5.551,2.485,5.551,5.551v20.47C316.779,288.349,314.293,290.834,311.227,290.834z"/>
	<path style="fill:#F9EED7;" d="M45.116,290.834c-3.066,0-5.551-2.485-5.551-5.551v-20.47c0-3.066,2.485-5.551,5.551-5.551
		s5.551,2.485,5.551,5.551v20.47C50.668,288.349,48.182,290.834,45.116,290.834z"/>
	<path style="fill:#F9EED7;" d="M98.339,290.834c-3.066,0-5.551-2.485-5.551-5.551v-20.47c0-3.066,2.485-5.551,5.551-5.551
		c3.066,0,5.551,2.485,5.551,5.551v20.47C103.889,288.349,101.405,290.834,98.339,290.834z"/>
	<path style="fill:#F9EED7;" d="M151.561,290.834c-3.066,0-5.551-2.485-5.551-5.551v-20.47c0-3.066,2.485-5.551,5.551-5.551
		s5.551,2.485,5.551,5.551v20.47C157.112,288.349,154.627,290.834,151.561,290.834z"/>
	<path style="fill:#F9EED7;" d="M258.006,290.834c-3.066,0-5.551-2.485-5.551-5.551v-20.47c0-3.066,2.485-5.551,5.551-5.551
		c3.066,0,5.551,2.485,5.551,5.551v20.47C263.556,288.349,261.072,290.834,258.006,290.834z"/>
	<path style="fill:#F9EED7;" d="M204.783,290.834c-3.066,0-5.551-2.485-5.551-5.551v-20.47c0-3.066,2.485-5.551,5.551-5.551
		s5.551,2.485,5.551,5.551v20.47C210.334,288.349,207.849,290.834,204.783,290.834z"/>
</g>
<path style="fill:#EDBB4C;" d="M210.662,270.556H29.7c-6.892,0-13.176-2.648-17.863-6.995c-3.987-3.698-6.603-8.54-7.685-13.774
	c-0.577-2.864-0.701-5.851-0.35-8.808l5.872-48.182l3.42-28.114c0-5.048,6.336-7.294,9.519-3.358
	c22.788,28.217,64.17,32.523,92.294,9.632c0,0-6.552,73.225,84.331,93.86C207.54,266.703,211.084,268.63,210.662,270.556z"/>
<g>
	<path style="fill:#5C5E70;" d="M68.266,256.442c0,4.851-0.538,9.574-1.571,14.117H29.699c-6.892,0-13.177-2.656-17.865-7.003
		c-3.988-3.698-6.601-8.54-7.678-13.766c-0.581-2.869-0.709-5.85-0.35-8.813l5.867-48.184
		C42.474,195.475,68.266,222.948,68.266,256.442z"/>
	<path style="fill:#5C5E70;" d="M359.782,249.791c-1.127,4.996-3.663,9.462-7.157,12.956c-4.825,4.825-11.503,7.814-18.865,7.814
		H29.699c-6.892,0-13.177-2.656-17.865-7.003c-3.988-3.698-6.601-8.54-7.678-13.766L359.782,249.791L359.782,249.791z"/>
	<path style="fill:#5C5E70;" d="M159.012,148.189c0,0,0,0,0,0.008c-12.375,15.253-44.127,47.79-89.893,47.79
		c-43.554,0-56.032-31.299-56.032-31.299c0-5.056,6.345-7.294,9.522-3.365c22.785,28.217,64.17,32.529,92.293,9.633l24.9-20.279
		C145.214,146.27,152.655,145.305,159.012,148.189L159.012,148.189z"/>
	<path style="fill:#5C5E70;" d="M121.214,211.36L121.214,211.36c0,3.774-3.059,6.832-6.832,6.832H99.863
		c-3.774,0-6.832,3.059-6.832,6.832l0,0c0,3.774,3.059,6.832,6.832,6.832h42.7c3.774,0,6.832-3.059,6.832-6.832l0,0
		c0-3.774,3.059-6.832,6.832-6.832h14.518c3.774,0,6.832-3.059,6.832-6.832l0,0c0-3.774-3.059-6.832-6.832-6.832h-42.7
		C124.273,204.527,121.214,207.586,121.214,211.36z"/>
</g>
<path style="fill:#F9EED7;" d="M493.097,346.347c-3.317,9.076-7.149,17.905-11.445,26.455
	c-19.615,39.034-49.068,72.267-85.093,96.466c-9.509,6.387-19.481,12.146-29.844,17.214c-23.818,11.651-49.727,19.646-77.027,23.282
	c-4.996-8.983-9.261-18.533-12.692-28.608c-1.339-3.956-2.534-7.922-3.585-11.888c-7.253-27.568-7.417-55.537-1.504-81.827
	c10.024-44.607,37.519-84.382,77.511-109.22c11.013-6.84,22.994-12.548,35.809-16.905c13.866-4.718,27.928-7.582,41.898-8.715
	c28.165-2.308,55.97,2.4,81.199,13.032c-0.288,12.208-1.442,24.199-3.4,35.912C502.337,316.997,498.351,331.975,493.097,346.347z"/>
<path style="fill:#E8DBC4;" d="M366.713,486.482c-23.818,11.651-49.727,19.646-77.027,23.282
	c-4.996-8.983-9.261-18.533-12.692-28.608c-1.339-3.956-2.534-7.922-3.585-11.888c-7.253-27.568-7.417-55.537-1.504-81.827
	c10.024-44.607,37.519-84.382,77.511-109.22c0.072-0.041,0.134-0.072,0.206-0.113c-0.031,0.052-0.062,0.093-0.093,0.144
	c-10.621,16.782-18.327,35.335-22.705,54.816c-5.913,26.29-5.748,54.26,1.504,81.838c0.505,1.896,1.04,3.801,1.607,5.697
	c0.618,2.06,1.277,4.131,1.978,6.181c0.721,2.122,1.483,4.224,2.287,6.305C341.927,453.269,353.054,471.215,366.713,486.482z"/>
<g>
	
		<rect x="402.663" y="285.421" transform="matrix(-0.9467 0.3221 -0.3221 -0.9467 901.1257 503.1458)" style="fill:#5C5E70;" width="12.549" height="81.405"/>
	
		<rect x="296.085" y="420.505" transform="matrix(-0.9999 0.0138 -0.0138 -0.9999 680.8226 848.8606)" style="fill:#5C5E70;" width="82.795" height="12.549"/>
	<path style="fill:#5C5E70;" d="M425.516,355.402l56.135,17.4c-19.615,39.034-49.068,72.267-85.093,96.466l-27.413-36.664
		l-4.832-6.459l4.296-6.078l44.288-62.779l3.358-4.749l9.251,2.864L425.516,355.402L425.516,355.402z"/>
	<path style="fill:#5C5E70;" d="M302.375,427.259l-28.961,42.011c-7.258-27.569-7.425-55.542-1.511-81.832L302.375,427.259z"/>
	<path style="fill:#5C5E70;" d="M427.122,252.596l-28.785,40.789l-48.92-15.16c11.018-6.848,22.995-12.554,35.807-16.913
		C399.097,256.594,413.151,253.729,427.122,252.596z"/>
</g>
<g>
	<path style="fill:#FCF8F2;" d="M504.923,301.544c-2.586,15.453-6.573,30.432-11.827,44.803
		c-7.335-1.865-13.609-7.283-16.225-14.989c-4.121-12.115,2.359-25.27,14.464-29.401C495.899,300.4,500.606,300.359,504.923,301.544
		z"/>
	<circle style="fill:#FCF8F2;" cx="454.712" cy="302.184" r="11.583"/>
</g>
<g>
	<rect x="239.301" y="7.211" style="fill:#E8DBC4;" width="9.272" height="120.81"/>
	<rect x="273.75" y="7.211" style="fill:#E8DBC4;" width="9.272" height="120.81"/>
	<rect x="411.558" y="7.211" style="fill:#E8DBC4;" width="9.272" height="120.81"/>
	<rect x="377.108" y="7.211" style="fill:#E8DBC4;" width="9.272" height="120.81"/>
	<rect x="342.659" y="7.211" style="fill:#E8DBC4;" width="9.272" height="120.81"/>
	<rect x="308.21" y="7.211" style="fill:#E8DBC4;" width="9.272" height="120.81"/>
	<rect x="215.607" y="42.21" style="fill:#E8DBC4;" width="228.917" height="9.272"/>
	<rect x="215.607" y="111.116" style="fill:#E8DBC4;" width="228.917" height="9.272"/>
	<rect x="215.607" y="76.656" style="fill:#E8DBC4;" width="228.917" height="9.272"/>
</g>
<path style="fill:#5C5E70;" d="M451.735,128.02h-14.423V36.358c0-12.095-9.84-21.936-21.936-21.936H243.939
	c-12.095,0-21.935,9.84-21.935,21.936v91.662h-14.423V36.358C207.581,16.31,223.891,0,243.939,0h171.438
	c20.047,0,36.357,16.31,36.357,36.358v91.662H451.735z"/>
<g>
	<path style="fill:#5BD3A2;" d="M127.423,405.222H49.819c-16.246-22.963-28.752-48.769-36.644-76.512h157.072
		c7.036,0,12.754,5.717,12.754,12.754c0,3.523-1.432,6.707-3.74,9.014c-2.308,2.308-5.491,3.74-9.014,3.74H91.614
		c-7.046,0-12.754,5.707-12.754,12.754c0,3.513,1.432,6.707,3.74,9.014s5.491,3.74,9.014,3.74h35.809
		c7.046,0,12.754,5.707,12.754,12.743c0,3.523-1.432,6.717-3.74,9.024C134.129,403.8,130.945,405.222,127.423,405.222z"/>
	<path style="fill:#5BD3A2;" d="M225.61,443.483c0,3.523-1.422,6.707-3.729,9.014c-2.308,2.297-5.501,3.729-9.024,3.729H97.743
		c-9.704-7.819-18.821-16.339-27.259-25.497h142.371C219.902,430.729,225.61,436.436,225.61,443.483z"/>
	<path style="fill:#5BD3A2;" d="M501.347,200.143h-50.592c-7.046,0-12.754-5.707-12.754-12.743v-0.01
		c0-7.036-5.707-12.743-12.754-12.743h-20.192c-3.513,0-6.707-1.422-9.014-3.729c-2.308-2.308-3.729-5.501-3.729-9.024
		c0-7.046,5.707-12.754,12.743-12.754H483C490.86,165.251,497.053,182.331,501.347,200.143z"/>
</g>
</svg>
